<?xml version="1.0" encoding="utf-8"?>
<!-- Generator: Adobe Illustrator 27.0.1, SVG Export Plug-In . SVG Version: 6.00 Build 0)  -->
<svg version="1.1" id="Layer_1" xmlns="http://www.w3.org/2000/svg" xmlns:xlink="http://www.w3.org/1999/xlink" x="0px" y="0px"
	 width="64px" height="64px" viewBox="0 0 64 64" enable-background="new 0 0 64 64" xml:space="preserve">
<g>
	<path fill="#31BBAE" d="M30.974,22.489c0.668-0.008,1.384-0.008,2.051,0c0.321,0.004,0.636,0.008,0.942,0.008
		c1.767,0,3.271-0.126,4.249-1.092c0.649-0.642,0.965-1.557,0.965-2.799c0-2.951-1.789-5.49-4.339-6.594
		c1.27-0.897,2.106-2.369,2.106-4.038c0-2.729-2.22-4.95-4.949-4.95c-2.729,0-4.949,2.221-4.949,4.95
		c0,1.669,0.836,3.141,2.106,4.038c-2.55,1.104-4.339,3.643-4.339,6.594c0,1.241,0.315,2.157,0.965,2.799
		C26.93,22.538,28.802,22.517,30.974,22.489z M28.551,7.975c0-1.902,1.547-3.45,3.449-3.45s3.449,1.548,3.449,3.45
		c0,1.901-1.547,3.448-3.449,3.448S28.551,9.876,28.551,7.975z M32,12.923c3.133,0,5.682,2.55,5.682,5.684
		c0,0.82-0.17,1.387-0.52,1.731c-0.701,0.693-2.287,0.671-4.118,0.652c-0.34-0.005-0.688-0.009-1.044-0.009
		s-0.704,0.004-1.044,0.009c-1.833,0.018-3.417,0.041-4.119-0.652c-0.349-0.345-0.519-0.911-0.519-1.731
		C26.318,15.473,28.867,12.923,32,12.923z"/>
	<path fill="#31BBAE" d="M10.275,50.494c1.269-0.897,2.106-2.369,2.106-4.039c0-2.73-2.22-4.951-4.948-4.951
		c-2.73,0-4.952,2.221-4.952,4.951c0,1.67,0.837,3.142,2.108,4.039c-2.549,1.104-4.339,3.642-4.339,6.593
		c0,1.24,0.315,2.155,0.964,2.797c0.977,0.965,2.481,1.091,4.246,1.091c0.308,0,0.623-0.004,0.944-0.008
		c0.67-0.008,1.387-0.008,2.056,0c2.169,0.027,4.042,0.05,5.188-1.083c0.649-0.641,0.964-1.556,0.964-2.797
		C14.613,54.136,12.823,51.598,10.275,50.494z M3.981,46.455c0-1.903,1.548-3.451,3.452-3.451c1.901,0,3.448,1.548,3.448,3.451
		c0,1.902-1.547,3.449-3.448,3.449C5.529,49.904,3.981,48.357,3.981,46.455z M12.594,58.816c-0.701,0.692-2.285,0.674-4.115,0.651
		c-0.683-0.011-1.413-0.011-2.093,0c-1.833,0.022-3.417,0.041-4.118-0.651c-0.349-0.345-0.519-0.91-0.519-1.729
		c0-3.134,2.549-5.683,5.683-5.683c3.132,0,5.68,2.549,5.68,5.683C13.113,57.906,12.943,58.472,12.594,58.816z"/>
	<path fill="#31BBAE" d="M59.413,50.494c1.27-0.897,2.106-2.369,2.106-4.039c0-2.73-2.22-4.951-4.949-4.951s-4.95,2.221-4.95,4.951
		c0,1.67,0.836,3.142,2.107,4.039c-2.55,1.104-4.339,3.642-4.339,6.593c0,1.242,0.315,2.157,0.965,2.799
		c1.146,1.132,3.015,1.106,5.183,1.082c0.674-0.01,1.396-0.01,2.069,0c0.323,0.004,0.641,0.008,0.949,0.008
		c1.759,0,3.258-0.127,4.232-1.09c0.649-0.642,0.965-1.557,0.965-2.799C63.75,54.136,61.961,51.598,59.413,50.494z M53.119,46.455
		c0-1.903,1.548-3.451,3.45-3.451s3.449,1.548,3.449,3.451c0,1.902-1.547,3.449-3.449,3.449S53.119,48.357,53.119,46.455z
		 M61.732,58.818c-0.701,0.691-2.28,0.671-4.109,0.649c-0.343-0.005-0.694-0.009-1.053-0.009s-0.711,0.004-1.054,0.009
		c-1.829,0.021-3.41,0.042-4.11-0.649c-0.349-0.345-0.519-0.911-0.519-1.731c0-3.134,2.549-5.683,5.683-5.683
		c3.133,0,5.681,2.549,5.681,5.683C62.25,57.907,62.08,58.474,61.732,58.818z"/>
	<path fill="#31BBAE" d="M43.834,55.705c-3.543,2.212-7.635,3.382-11.834,3.382c-4.074,0-8.059-1.104-11.525-3.193
		c-0.354-0.215-0.815-0.1-1.03,0.256c-0.213,0.354-0.099,0.815,0.255,1.029C23.4,59.408,27.653,60.587,32,60.587
		c4.481,0,8.848-1.248,12.629-3.61c0.352-0.219,0.458-0.682,0.238-1.033C44.65,55.593,44.187,55.486,43.834,55.705z"/>
	<path fill="#31BBAE" d="M19.435,17.312c-0.236-0.339-0.704-0.422-1.044-0.187c-6.42,4.468-10.252,11.796-10.252,19.603
		c0,0.414,0.336,0.75,0.75,0.75s0.75-0.336,0.75-0.75c0-7.316,3.592-14.185,9.609-18.372C19.588,18.12,19.672,17.652,19.435,17.312z
		"/>
	<path fill="#31BBAE" d="M55.111,37.687c0.414,0,0.75-0.336,0.75-0.75c0-7.931-3.827-15.331-10.236-19.796
		c-0.342-0.237-0.809-0.152-1.044,0.187c-0.237,0.34-0.153,0.808,0.187,1.044c6.007,4.185,9.594,11.125,9.594,18.565
		C54.361,37.351,54.697,37.687,55.111,37.687z"/>
	<path fill="#31BBAE" d="M19.384,39.234c0,3.194,1.206,6.226,3.391,8.533c0.011,0.011,0.023,0.021,0.034,0.032
		c0.001,0.001,0.002,0.003,0.003,0.005c0.001,0.001,0.003,0.001,0.004,0.003c2.337,2.469,5.622,3.886,9.027,3.886
		c0.002,0,0.004,0,0.006,0c0.005,0,0.01,0,0.016,0c3.407,0,6.694-1.418,9.029-3.886c0.001-0.001,0.003-0.001,0.004-0.002
		c0.001-0.001,0.002-0.003,0.003-0.004c0.01-0.01,0.021-0.019,0.031-0.03c2.188-2.312,3.394-5.345,3.394-8.536
		c0-3.183-1.205-6.214-3.391-8.532c-0.012-0.013-0.025-0.023-0.037-0.036c0,0-0.001-0.001-0.001-0.002c0,0-0.001,0-0.001-0.001
		c-2.332-2.469-5.619-3.885-9.053-3.885c0,0-0.001,0-0.001,0s0,0-0.001,0c0,0-0.001,0-0.001,0c-3.413,0.001-6.7,1.417-9.026,3.884
		c-0.001,0.001-0.002,0.001-0.002,0.001c-0.001,0.001-0.001,0.002-0.002,0.003c-0.011,0.011-0.023,0.021-0.034,0.032
		C20.589,33.019,19.384,36.05,19.384,39.234z M23.366,32.315c0.592,0.555,1.24,1.044,1.931,1.469
		c-0.414,1.465-0.656,3.062-0.713,4.701h-3.665C21.074,36.218,21.923,34.075,23.366,32.315z M42.791,38.484h-3.665
		c-0.057-1.635-0.299-3.232-0.713-4.701c0.692-0.425,1.34-0.913,1.931-1.469C41.787,34.075,42.636,36.218,42.791,38.484z
		 M40.345,46.156c-0.591-0.554-1.24-1.043-1.932-1.468c0.414-1.465,0.656-3.063,0.713-4.703h3.665
		C42.637,42.256,41.788,44.399,40.345,46.156z M20.919,39.984h3.665c0.057,1.645,0.299,3.243,0.713,4.704
		c-0.694,0.427-1.342,0.915-1.932,1.468C21.923,44.402,21.073,42.258,20.919,39.984z M26.657,34.495
		c1.619,0.746,3.387,1.158,5.187,1.158c0.004,0,0.007-0.002,0.011-0.002c0.004,0,0.007,0.002,0.011,0.002
		c1.801,0,3.571-0.413,5.188-1.158c0.327,1.254,0.52,2.605,0.572,3.989H26.084C26.136,37.097,26.329,35.747,26.657,34.495z
		 M25.784,46.186c0.479,1.232,1.08,2.288,1.769,3.139c-1.147-0.489-2.203-1.185-3.139-2.057C24.84,46.87,25.296,46.51,25.784,46.186
		z M26.657,43.98c-0.328-1.249-0.521-2.602-0.573-3.995h11.542c-0.052,1.39-0.246,2.742-0.573,3.995
		C33.811,42.504,29.917,42.493,26.657,43.98z M37.926,46.186c0.488,0.324,0.944,0.684,1.369,1.082
		c-0.935,0.871-1.989,1.567-3.136,2.056C36.847,48.474,37.447,47.417,37.926,46.186z M37.926,32.285
		c-0.476-1.223-1.071-2.273-1.755-3.119c1.147,0.49,2.201,1.182,3.123,2.038C38.869,31.602,38.413,31.962,37.926,32.285z
		 M36.602,33.051c-1.47,0.709-3.088,1.102-4.737,1.102c-0.004,0-0.007,0.002-0.011,0.002c-0.004,0-0.007-0.002-0.011-0.002
		c-1.647,0-3.263-0.392-4.735-1.102c1.087-2.948,2.864-4.768,4.757-4.772C33.739,28.279,35.514,30.1,36.602,33.051z M25.783,32.324
		c-0.494-0.326-0.957-0.696-1.389-1.101c0.922-0.861,1.979-1.559,3.131-2.053C26.847,30.02,26.26,31.081,25.783,32.324z
		 M31.845,50.193c-1.874-0.004-3.648-1.824-4.736-4.772c2.935-1.404,6.52-1.42,9.492,0c-1.087,2.952-2.862,4.772-4.736,4.772
		C31.859,50.193,31.852,50.193,31.845,50.193z"/>
</g>
</svg>
